<mxfile host="app.diagrams.net" modified="2024-02-18T12:10:12.367Z" agent="Mozilla/5.0 (Macintosh; Intel Mac OS X 10_15_7) AppleWebKit/537.36 (KHTML, like Gecko) Chrome/121.0.0.0 Safari/537.36" version="23.1.5" etag="GmCAO-DhSPA0nUH3fY4Y" type="github">
  <diagram name="Page-1" id="iPzMyIbg1Zlj0F3Popw4">
    <mxGraphModel>
      <root>
        <mxCell id="0" />
        <mxCell id="1" parent="0" />
      </root>
    </mxGraphModel>
  </diagram>
</mxfile>
